<svg id="Layer_1" data-name="Layer 1" xmlns="http://www.w3.org/2000/svg" viewBox="0 0 136.5 135.97" fill="#FFFFFF"><path d="M950.08,310.22c.11,1.58.17,3.17.17,4.78a69.2,69.2,0,0,1-.35,6.94,3.81,3.81,0,0,0-.15.65,81.43,81.43,0,0,1-3.7,16,68.34,68.34,0,0,1-55.53,44.09V330a7.55,7.55,0,0,1,1.12-.21q4.54,0,9.09,0c5.91,0,6,0,6.81-5.89.63-4.37,1.06-8.77,1.62-13.56H890.28c0-3.91,0-7.46,0-11,0-.82,0-1.64.06-2.45.5-5.53,2.79-7.73,8.37-7.88,3.61-.09,7.22,0,11,0V270.89c-5.85,0-11.5-.32-17.11.06-12.9.89-21.15,9.43-21.83,22.48-.29,5.56,0,11.14,0,17H854.31v19.47H870.4v52.33a68.35,68.35,0,0,1-51.29-40.7.5.5,0,0,1-.05-.13,84.35,84.35,0,0,1-2.93-8.52c0-.05,0-.09,0-.14-.08-.29-.16-.59-.23-.88s-.21-.83-.3-1.25-.18-.74-.25-1.11c-.29-1.38-.53-2.78-.77-4.18,0-.07,0-.14,0-.22a69,69,0,0,1-.75-10.13,68.28,68.28,0,0,1,1.36-13.58l0-.17a70.11,70.11,0,0,1,13.79-29.16l.41-.5c.34-.42.7-.84,1-1.25A68.3,68.3,0,0,1,865,248.9c.55-.15,1.11-.28,1.67-.41l1.63-.35c.4-.09.8-.16,1.21-.23s.6-.12.91-.16.9-.16,1.36-.23l1.24-.17,1.1-.14,1.18-.13c1.82-.17,3.65-.28,5.5-.32h1.38l1.63,0a68,68,0,0,1,44,17.6l1,.89.94.9A67.53,67.53,0,0,1,946.37,293C948.21,298.57,948.92,304.47,950.08,310.22Z" transform="translate(-813.75 -246.75)"/></svg>