<?xml version="1.0" encoding="utf-8"?>
<!-- Generator: Adobe Illustrator 24.2.1, SVG Export Plug-In . SVG Version: 6.00 Build 0)  -->
<svg version="1.1" id="svg930" xmlns="http://www.w3.org/2000/svg" xmlns:xlink="http://www.w3.org/1999/xlink" x="0px" y="0px"
	 viewBox="0 0 105.9 49.1" style="enable-background:new 0 0 105.9 49.1;" xml:space="preserve">
<style type="text/css">
	.st0{fill:#FFFFFF;}
	.st1{font-family:'Roboto-Regular';}
	.st2{font-size:18px;}
	.st3{fill:none;stroke:#FF2700;stroke-miterlimit:11.34;}
</style>
<text transform="matrix(1 0 0 1 38.6724 30.4709)" class="st0 st1 st2">Spotify</text>
<line id="Line_16" class="st3" x1="12.1" y1="45.9" x2="86.3" y2="44.3"/>
<path id="spotify-2" class="st0" d="M18.4,3.9c8.8,0,16,7.2,16,16s-7.2,16-16,16s-16-7.2-16-16C2.4,11,9.6,3.9,18.4,3.9z M30.2,17.2
	c0.1-0.7-0.2-1.4-0.8-1.7c-2.8-1.5-5.8-2.5-9-2.8c-1.4-0.2-2.9-0.2-4.3-0.3c-1.3,0.1-2.5,0.2-3.7,0.3c-1.4,0.1-2.7,0.4-4,0.8
	c-0.8,0.2-1.2,1.1-1,1.9c0,0,0,0,0,0c0.1,0.4,0.4,0.7,0.7,0.9c0.5,0.2,1,0.3,1.4,0.1c1.6-0.5,3.3-0.7,4.9-0.8c2-0.1,4,0,6,0.3
	c2.5,0.3,5,1.1,7.3,2.3c0.3,0.2,0.7,0.3,1.1,0.2C29.5,18.3,30.1,17.9,30.2,17.2z M27.9,22.5c0.3-0.5,0.1-1.2-0.4-1.6c0,0,0,0,0,0
	l0,0c-0.7-0.4-1.4-0.8-2.1-1.1c-3-1.3-6.2-2-9.5-2C15,17.9,14.1,18,13.3,18c-1.3,0.1-2.7,0.4-3.9,0.8c-0.6,0.2-0.9,0.7-0.8,1.3
	c0,0.5,0.3,1,0.8,1.1c0.3,0.1,0.6,0.1,0.8,0c1.4-0.4,2.9-0.7,4.3-0.8c1.4-0.1,2.8,0,4.2,0.2c2,0.3,4,0.8,5.9,1.7
	c0.5,0.2,1,0.6,1.6,0.8C26.8,23.4,27.5,23.1,27.9,22.5z M26,26.4c0-0.1,0-0.2-0.1-0.2c-0.1-0.4-0.4-0.5-0.7-0.6
	c-2.3-1.4-4.9-2.2-7.6-2.3c-1.3-0.1-2.5,0-3.8,0.1c-1.3,0.1-2.6,0.4-3.9,0.6c-0.6,0-1,0.5-1,1.1c0,0.6,0.5,1,1.1,1c0,0,0,0,0,0
	c0.1,0,0.3,0,0.4,0c1.5-0.4,3.1-0.6,4.7-0.6c1.8-0.1,3.6,0.1,5.3,0.5c1.4,0.4,2.8,0.9,4,1.7c0.5,0.3,1.1,0.2,1.4-0.3
	C26,26.9,26,26.7,26,26.4z"/>
</svg>
