<?xml version="1.0" encoding="utf-8"?>
<!-- Generator: Adobe Illustrator 24.2.1, SVG Export Plug-In . SVG Version: 6.00 Build 0)  -->
<svg version="1.1"
	 id="svg930" inkscape:export-filename="G:\Users\suitedoalex\sites\listen-on-spotify-0.png" inkscape:export-xdpi="148.63" inkscape:export-ydpi="148.63" inkscape:version="0.92.4 (5da689c313, 2019-01-14)" sodipodi:docname="listen-on-spotify.svg" xmlns:cc="http://creativecommons.org/ns#" xmlns:dc="http://purl.org/dc/elements/1.1/" xmlns:inkscape="http://www.inkscape.org/namespaces/inkscape" xmlns:rdf="http://www.w3.org/1999/02/22-rdf-syntax-ns#" xmlns:sodipodi="http://sodipodi.sourceforge.net/DTD/sodipodi-0.dtd" xmlns:svg="http://www.w3.org/2000/svg"
	 xmlns="http://www.w3.org/2000/svg" xmlns:xlink="http://www.w3.org/1999/xlink" x="0px" y="0px" viewBox="0 0 1984.3 1984.3"
	 style="enable-background:new 0 0 1984.3 1984.3;" xml:space="preserve">
<style type="text/css">
	.st0{fill:#FFFFFF;}
	.st1{font-family:'Roboto-Regular';}
	.st2{font-size:18px;}
	.st3{fill:none;stroke:#FFFFFF;stroke-miterlimit:11.339;}
</style>
<sodipodi:namedview  bordercolor="#666666" borderopacity="1.0" fit-margin-bottom="0" fit-margin-left="0" fit-margin-right="0" fit-margin-top="0" id="base" inkscape:current-layer="layer1" inkscape:cx="622.18818" inkscape:cy="1484.9141" inkscape:document-units="mm" inkscape:pageopacity="0.0" inkscape:pageshadow="2" inkscape:window-height="837" inkscape:window-maximized="1" inkscape:window-width="1600" inkscape:window-x="-8" inkscape:window-y="-8" inkscape:zoom="0.175" pagecolor="#ffffff" showgrid="false">
	</sodipodi:namedview>
<g id="listen-on-spotify" transform="translate(-5.6 -6.8)">
	<text transform="matrix(1 0 0 1 47.503 40.2)" class="st0 st1 st2">Spotify</text>
	<line id="Line_17" class="st3" x1="20.9" y1="55.6" x2="95.2" y2="54"/>
	<path id="spotify-2" class="st0" d="M27.2,13.6c8.8,0,16,7.2,16,16s-7.2,16-16,16s-16-7.2-16-16l0,0C11.2,20.8,18.4,13.6,27.2,13.6
		z M39,27c0.1-0.7-0.2-1.4-0.8-1.7c-2.8-1.5-5.8-2.5-9-2.8c-1.4-0.2-2.9-0.2-4.3-0.3c-1.3,0.1-2.5,0.2-3.7,0.3
		c-1.4,0.1-2.7,0.4-4,0.8c-0.8,0.2-1.2,1-1,1.8c0,0,0,0.1,0,0.1c0.1,0.4,0.4,0.7,0.7,0.9c0.5,0.2,1,0.3,1.5,0.1
		c1.6-0.5,3.2-0.7,4.9-0.8c2-0.1,4,0,6,0.3c2.6,0.3,5,1.1,7.3,2.3c0.3,0.2,0.7,0.3,1.1,0.2C38.3,28.1,38.9,27.6,39,27z M36.7,32.2
		c0.3-0.6,0.1-1.2-0.4-1.6l0,0c-0.7-0.4-1.4-0.8-2.1-1.1c-3-1.3-6.2-2-9.5-2c-0.8,0.1-1.7,0.1-2.5,0.2c-1.3,0.1-2.6,0.4-3.9,0.8
		c-0.5,0.2-0.9,0.7-0.8,1.3c0,0.5,0.3,1,0.8,1.1c0.3,0.1,0.5,0.1,0.8,0c1.4-0.4,2.8-0.7,4.3-0.7c1.4-0.1,2.8,0,4.2,0.2
		c2,0.3,4,0.8,5.9,1.7c0.5,0.3,1,0.6,1.6,0.8C35.7,33.1,36.4,32.8,36.7,32.2z M34.8,36.1c0-0.1,0-0.2-0.1-0.3
		c-0.1-0.4-0.4-0.5-0.7-0.7c-2.3-1.4-4.9-2.2-7.6-2.3c-1.3-0.1-2.5-0.1-3.8,0.1c-1.3,0.1-2.6,0.4-3.9,0.6c-0.4,0.1-0.8,0.5-0.9,0.9
		c0,0.6,0.4,1.1,1,1.1c0,0,0,0,0,0c0.1,0,0.3,0,0.4-0.1c1.5-0.4,3.1-0.6,4.7-0.6c1.8-0.1,3.6,0.1,5.3,0.5c1.4,0.4,2.8,0.9,4,1.7
		c0.4,0.3,1.1,0.2,1.4-0.3c0,0,0,0,0,0C34.8,36.6,34.8,36.4,34.8,36.1z"/>
</g>
</svg>
