<svg id="Layer_1" data-name="Layer 1" xmlns="http://www.w3.org/2000/svg" viewBox="0 0 136.5 136.5"><path d="M584.33,246.67a68.25,68.25,0,1,1-68.23,68.16A68.16,68.16,0,0,1,584.33,246.67ZM582.17,342c10-.16,19.44-.3,28.93-.47a21,21,0,0,0,3.45-.34c3.06-.58,4.57-2.88,5.65-5.48a34.83,34.83,0,0,0,2.6-12.8c.09-5.25-.19-10.5-.21-15.75A34.57,34.57,0,0,0,620,294.49a8.21,8.21,0,0,0-6.14-5.34,35,35,0,0,0-7-.81q-15.1-.29-30.21-.34c-6.4,0-12.81.1-19.21.29a9.8,9.8,0,0,0-8.47,5.16c-2.19,3.58-2.48,7.61-2.83,11.51a148,148,0,0,0-.26,16.32c.13,5.91,1.15,11.66,4.28,16.87a4.85,4.85,0,0,0,3.31,2.52,24.73,24.73,0,0,0,4,.58C565.88,341.53,574.26,341.75,582.17,342Z" transform="translate(-516.1 -246.67)"/><path d="M577,328.42v-27L598.06,315C591.64,320.36,584.32,324.19,577,328.42Z" transform="translate(-516.1 -246.67)"/></svg>