<svg id="Layer_1" data-name="Layer 1" xmlns="http://www.w3.org/2000/svg" viewBox="0 0 52 52"><defs><style>.cls-1{fill:#fff;}</style></defs><path class="cls-1" d="M593,521a26,26,0,1,0,26,26A26,26,0,0,0,593,521Zm11.84,27c-2.44,1.29-4.88,2.58-7.35,3.82-3.49,1.75-7,3.45-10.51,5.17-.18.09-.38.15-.55.25a1.26,1.26,0,0,1-1.73-1c0-1.31-.05-2.63-.06-4,0-1.8,0-3.61,0-5.41h0c0-2.64,0-5.27,0-7.91,0-.49.06-1,.1-1.48a.7.7,0,0,1,.38-.57,1.45,1.45,0,0,1,1.48-.13q8.91,4.5,17.84,9a3.84,3.84,0,0,1,.39.22A1.18,1.18,0,0,1,604.84,548Z" transform="translate(-567 -521)"/></svg>