<svg id="Layer_1" data-name="Layer 1" xmlns="http://www.w3.org/2000/svg" viewBox="0 0 134.77 118.78"><defs><style>.cls-1{fill:#fff;}</style></defs><path class="cls-1" d="M194.11,186.37h6.33q35.48,0,70.95,0c9.07,0,11.16,2.88,8.32,11.39-4.26,12.76-8.65,25.47-12.8,38.27-1.45,4.47-4.07,6.3-8.81,6.27q-30.47-.24-61,0c-5.06,0-7.65-2-8.32-7.07-2.4-18.29-5.08-36.55-7.39-54.84-.47-3.67-2.19-5.53-5.3-7-8.39-4-16.67-8.3-25-12.53-4.66-2.38-6.13-5.24-4.27-8.53,2.4-4.27,5.74-3.52,9.39-1.64,10,5.18,20.08,10.4,30.28,15.27,3.75,1.79,5.65,4.27,6,8.3C192.94,178,193.53,181.79,194.11,186.37Zm66.55,32.42H215.89c-3.35-.06-5.61-1.73-5.51-5.09s2.39-4.73,5.79-4.71c14.48.08,29,.1,43.44-.06,1.65,0,4.16-.83,4.75-2,1.44-2.88,2-6.21,2.95-9.64H195.43c1.2,9.71,2.54,19,3.41,28.43.33,3.48,1.58,4.43,4.92,4.39,14.82-.15,29.63-.06,44.44-.06C258.54,230,258.54,230,260.66,218.79Z" transform="translate(-146.12 -149.13)"/><path class="cls-1" d="M212.84,257.1a10.76,10.76,0,1,1-11-10.67A10.89,10.89,0,0,1,212.84,257.1Z" transform="translate(-146.12 -149.13)"/><path class="cls-1" d="M257,257a10.64,10.64,0,0,1-10.57,10.91A10.74,10.74,0,1,1,257,257Z" transform="translate(-146.12 -149.13)"/></svg>