<svg id="svg930" xmlns="http://www.w3.org/2000/svg" viewBox="0 0 92.33 42.5"><defs><style>.cls-1{isolation:isolate;font-size:18px;font-family:Roboto-Regular, Roboto;}.cls-1,.cls-3{fill:#fff;}.cls-2{fill:none;stroke:#fff;stroke-miterlimit:11.34;}</style></defs><text class="cls-1" transform="translate(36.27 26.57)">Spotify</text><line id="Line_16" data-name="Line 16" class="cls-2" x1="9.7" y1="42" x2="83.9" y2="40.4"/><path id="spotify-2" class="cls-3" d="M18.4,3.9a16,16,0,1,1-16,16A16,16,0,0,1,18.4,3.9ZM30.2,17.2a1.61,1.61,0,0,0-.8-1.7,23.65,23.65,0,0,0-9-2.8c-1.4-.2-2.9-.2-4.3-.3l-3.7.3a17.73,17.73,0,0,0-4,.8,1.54,1.54,0,0,0-1,1.9h0a1.6,1.6,0,0,0,.7.9,1.74,1.74,0,0,0,1.4.1,20.89,20.89,0,0,1,4.9-.8,30.19,30.19,0,0,1,6,.3,21.43,21.43,0,0,1,7.3,2.3,1.39,1.39,0,0,0,1.1.2A1.5,1.5,0,0,0,30.2,17.2Zm-2.3,5.3a1.28,1.28,0,0,0-.4-1.6h0a21.16,21.16,0,0,0-2.1-1.1,23.8,23.8,0,0,0-9.5-2,24.62,24.62,0,0,1-2.6.2,16.89,16.89,0,0,0-3.9.8,1.11,1.11,0,0,0-.8,1.3,1.08,1.08,0,0,0,.8,1.1,1.1,1.1,0,0,0,.8,0,21.67,21.67,0,0,1,4.3-.8,19.72,19.72,0,0,1,4.2.2,20.91,20.91,0,0,1,5.9,1.7c.5.2,1,.6,1.6.8A1.35,1.35,0,0,0,27.9,22.5ZM26,26.4c0-.1,0-.2-.1-.2-.1-.4-.4-.5-.7-.6a15.71,15.71,0,0,0-7.6-2.3,24.13,24.13,0,0,0-3.8.1c-1.3.1-2.6.4-3.9.6a1.05,1.05,0,0,0,.1,2.1h.4a18.35,18.35,0,0,1,4.7-.6,18.72,18.72,0,0,1,5.3.5,14.19,14.19,0,0,1,4,1.7,1,1,0,0,0,1.4-.3A2.17,2.17,0,0,0,26,26.4Z" transform="translate(-2.4 -3.9)"/></svg>