<svg id="svg930" xmlns="http://www.w3.org/2000/svg" viewBox="0 0 92.36 42.5"><defs><style>.cls-1{isolation:isolate;font-size:18px;font-family:Roboto-Regular, Roboto;}.cls-1,.cls-3{fill:#fff;}.cls-2{fill:none;stroke:#ff1d00;stroke-miterlimit:11.34;}</style></defs><g id="listen-on-spotify"><text class="cls-1" transform="translate(36.3 26.6)">Spotify</text><line id="Line_17" data-name="Line 17" class="cls-2" x1="9.7" y1="42" x2="84" y2="40.4"/><path id="spotify-2" class="cls-3" d="M21.6,6.8a16,16,0,1,1-16,16h0A16,16,0,0,1,21.6,6.8ZM33.4,20.2a1.61,1.61,0,0,0-.8-1.7,23.65,23.65,0,0,0-9-2.8c-1.4-.2-2.9-.2-4.3-.3l-3.7.3a17.73,17.73,0,0,0-4,.8,1.43,1.43,0,0,0-1,1.8v.1a1.6,1.6,0,0,0,.7.9,2,2,0,0,0,1.5.1,20.07,20.07,0,0,1,4.9-.8,30.19,30.19,0,0,1,6,.3A20.76,20.76,0,0,1,31,21.2a1.39,1.39,0,0,0,1.1.2A1.61,1.61,0,0,0,33.4,20.2Zm-2.3,5.2a1.25,1.25,0,0,0-.4-1.6h0a21.16,21.16,0,0,0-2.1-1.1,23.8,23.8,0,0,0-9.5-2c-.8.1-1.7.1-2.5.2a18,18,0,0,0-3.9.8,1.21,1.21,0,0,0-.8,1.3,1.08,1.08,0,0,0,.8,1.1,1.1,1.1,0,0,0,.8,0,15.47,15.47,0,0,1,4.3-.7,19.72,19.72,0,0,1,4.2.2,20.91,20.91,0,0,1,5.9,1.7,8,8,0,0,0,1.6.8A1.35,1.35,0,0,0,31.1,25.4Zm-1.9,3.9a.37.37,0,0,0-.1-.3c-.1-.4-.4-.5-.7-.7A15.71,15.71,0,0,0,20.8,26a16.12,16.12,0,0,0-3.8.1c-1.3.1-2.6.4-3.9.6a1.35,1.35,0,0,0-.9.9,1,1,0,0,0,1,1.1h0a.6.6,0,0,0,.4-.1,18.35,18.35,0,0,1,4.7-.6,18.72,18.72,0,0,1,5.3.5,14.19,14.19,0,0,1,4,1.7,1,1,0,0,0,1.4-.3h0C29.2,29.8,29.2,29.6,29.2,29.3Z" transform="translate(-5.6 -6.8)"/></g></svg>