<svg id="svg930" xmlns="http://www.w3.org/2000/svg" viewBox="0 0 129.17 43.29"><defs><style>.cls-1,.cls-2{fill:#fff;}.cls-2{font-size:18px;font-family:Roboto-Regular, Roboto;}.cls-3{fill:none;stroke:#fff;stroke-miterlimit:11.34;}</style></defs><path class="cls-1" d="M32.47,17.05c-5.06,3.78-4,10.23.93,12.75-1.1,3-2.55,5.8-5.17,7.79a3.54,3.54,0,0,1-3.8.22,7.43,7.43,0,0,0-6.89,0,3.5,3.5,0,0,1-4.3-.7C8.82,32.51,6.64,27.06,7.8,20.63a7.7,7.7,0,0,1,8.09-6.52,7.56,7.56,0,0,1,2.72.75,4.43,4.43,0,0,0,4.13,0,7.84,7.84,0,0,1,6.61-.27A6.23,6.23,0,0,1,32.47,17.05Z" transform="translate(-7.49 -6.28)"/><path class="cls-1" d="M20.43,13.44a6.89,6.89,0,0,1,6.19-7.16C27.37,9.72,23.94,13.74,20.43,13.44Z" transform="translate(-7.49 -6.28)"/><text class="cls-2" transform="translate(30.16 27.12)">Apple Music</text><line class="cls-3" x1="9.49" y1="42.79" x2="119.68" y2="40.51"/></svg>