<svg id="Layer_1" data-name="Layer 1" xmlns="http://www.w3.org/2000/svg" viewBox="0 0 136.5 136.5" fill="#FFFFFF"><path d="M665.33,314.51c.22-16.87,5.54-31.87,16.68-44.62,12.91-14.77,29.28-22.67,48.85-23.49a65.58,65.58,0,0,1,47.39,16.54c15.6,13.61,23.49,30.92,23.58,51.63a65.64,65.64,0,0,1-19.37,47.76c-13.34,13.61-29.75,20.4-48.88,20.5a68.09,68.09,0,0,1-68.25-68.32Zm23.24.06c0,6,0,11.91,0,17.86a40.73,40.73,0,0,0,.18,4.28,26.22,26.22,0,0,0,25.75,23q18.84,0,37.67,0a33.22,33.22,0,0,0,4.56-.35,26.23,26.23,0,0,0,22-25.64c0-12.59,0-25.17,0-37.76a29.73,29.73,0,0,0-.6-5.8,26.09,26.09,0,0,0-25.4-20.61c-12.56,0-25.11,0-37.67,0a24.92,24.92,0,0,0-12.37,3c-8.94,4.95-13.81,12.52-14.08,22.79C688.43,301.69,688.57,308.13,688.57,314.57Z" transform="translate(-665.33 -246.33)"/><path d="M695.52,314.56c0-6.15-.08-12.3,0-18.45.13-8.4,4-14.5,11.65-18.06a18.49,18.49,0,0,1,7.87-1.57c12.4,0,24.79,0,37.19,0a19.06,19.06,0,0,1,19.18,15.75,19.83,19.83,0,0,1,.33,3.78q0,18.59,0,37.18A19.09,19.09,0,0,1,756,352.38a19.83,19.83,0,0,1-3.78.33q-18.54,0-37.08,0a19.14,19.14,0,0,1-19.5-17.09,22.17,22.17,0,0,1-.13-2.83Q695.51,323.68,695.52,314.56Zm38.12,24.34a24.3,24.3,0,1,0-24.3-24.35A24.33,24.33,0,0,0,733.64,338.9Zm26-55.52a5.23,5.23,0,1,0,5.27,5.15A5.25,5.25,0,0,0,759.62,283.38Z" transform="translate(-665.33 -246.33)"/><path d="M716.38,314.63a17.15,17.15,0,0,1,17.34-17.3,17.28,17.28,0,1,1-17.34,17.3Z" transform="translate(-665.33 -246.33)"/></svg>