<svg id="Layer_1" data-name="Layer 1" xmlns="http://www.w3.org/2000/svg" xmlns:xlink="http://www.w3.org/1999/xlink" viewBox="0 0 136.5 136.5" fill="#FFFFFF"><path class="cls-1" d="M77.25.5A68.25,68.25,0,1,1,9,68.75,68.25,68.25,0,0,1,77.25.5Zm50.22,57.06A6.67,6.67,0,0,0,124,50.41c-11.87-6.79-24.79-10.33-38.24-12-6.16-.77-12.38-1-18.19-1.45-5.52.39-10.62.7-15.71,1.13a85.85,85.85,0,0,0-17.09,3.28,6.38,6.38,0,0,0-1.31,11.74c2,1.14,4.08.9,6.19.27a85.3,85.3,0,0,1,21-3.29,132.24,132.24,0,0,1,25.53,1.22c10.88,1.67,21.35,4.51,31,10A8.42,8.42,0,0,0,122,62.31,5.73,5.73,0,0,0,127.47,57.56Zm-10,22.55a4.88,4.88,0,0,0-1.91-6.69c-3-1.66-6-3.33-9.11-4.71A102.32,102.32,0,0,0,66,60.31c-3.54.24-7.09.44-10.63.73a80.79,80.79,0,0,0-16.81,3.29C36.23,65,35,67,35.07,69.7a4.52,4.52,0,0,0,3.59,4.67,7.31,7.31,0,0,0,3.54,0,81,81,0,0,1,18.45-3.18,96,96,0,0,1,17.84.7,85.58,85.58,0,0,1,25.22,7.27c2.29,1.09,4.46,2.42,6.72,3.55C112.88,83.93,116,82.74,117.47,80.11Zm-7.93,16.61c0-.13-.13-.61-.25-1.07-.41-1.5-1.7-2.08-2.89-2.78A71.48,71.48,0,0,0,73.81,83a110.94,110.94,0,0,0-16.1.25c-5.51.46-11,1.52-16.44,2.43a4.45,4.45,0,0,0-3.79,4c-.18,3.26,2.54,5.38,6,4.58a111.29,111.29,0,0,1,19.88-2.77A76.17,76.17,0,0,1,86,93.65a65.61,65.61,0,0,1,17,7.17C106.07,102.64,109.53,100.61,109.54,96.72Z" transform="translate(-9 -0.5)"/></svg>