<svg id="Layer_1" data-name="Layer 1" xmlns="http://www.w3.org/2000/svg" viewBox="0 0 136.5 136.5" fill="#FFFFFF"><path d="M78,17.41A68.25,68.25,0,1,1,9.55,85.86,68.26,68.26,0,0,1,78,17.41Zm28.11,29.16V44.76c-.57,0-1,0-1.31.08C89.51,47.45,74.29,50.1,59,52.64c-1.52.25-1.76.82-1.75,2.15q0,21.27,0,42.52v2c-.61,0-.93,0-1.25,0a14.26,14.26,0,0,0-14.77,8.49c-3.17,6.69.05,15.16,6.73,17.74a14.17,14.17,0,0,0,19.36-13.39q0-19.56,0-39.12c0-1.36.29-2,1.77-2.23,7.21-1.25,14.4-2.65,21.6-4,1.66-.3,3.33-.58,5.06-.88V94.8c-.48,0-.85,0-1.22,0-5.87-.53-10.36,1.81-13.63,6.62-3.57,5.26-2.67,13.2,1.89,17.2a14,14,0,0,0,21.29-3.69c1.71-3,2-6.26,1.94-9.67C106,85.69,106,66.13,106.06,46.57Z" transform="translate(-9.55 -17.41)"/><path d="M106.15,44.64v1.81c0,19.62-.08,39.24,0,58.87,0,3.42-.23,6.66-1.94,9.7a14,14,0,0,1-21.36,3.7c-4.57-4-5.47-12-1.89-17.25,3.28-4.82,7.78-7.18,13.67-6.64.37,0,.74,0,1.23,0V65.91c-1.74.3-3.42.58-5.08.89-7.23,1.34-14.43,2.74-21.67,4-1.49.26-1.78.86-1.78,2.23q.07,19.62,0,39.24A14.21,14.21,0,0,1,47.93,125.7c-6.71-2.59-9.93-11.08-6.75-17.79A14.29,14.29,0,0,1,56,99.4c.32,0,.64,0,1.25,0V97.35q0-21.33,0-42.66c0-1.33.23-1.91,1.75-2.16,15.3-2.54,30.57-5.19,45.85-7.81C105.19,44.66,105.57,44.67,106.15,44.64Zm-3,5.61V48.18a8.45,8.45,0,0,0-1.06,0c-13.47,2.29-26.93,4.61-40.4,6.86-1.34.22-1.57.84-1.56,2.05,0,14.81,0,29.62,0,44.43v2.21c-.82-.28-1.38-.46-1.92-.67a11.17,11.17,0,0,0-13.49,4.41c-4.18,6.48-.94,14.61,6.43,16.11,6.69,1.35,13.19-4.16,13.19-11.24q0-20.84,0-41.67v-2l34.45-6.4V99.16c-.63-.22-1.09-.36-1.53-.54-4.69-2-8.8-.85-12.35,2.54-4.54,4.33-4.27,12.16.46,15.81a11,11,0,0,0,17.23-6,22.22,22.22,0,0,0,.45-5.78Q103.17,77.73,103.17,50.25Z" transform="translate(-9.55 -17.41)"/></svg>